{
    "asset" : {
        "generator" : "Khronos glTF Blender I/O v1.4.40",
        "version" : "2.0"
    },
    "scene" : 0,
    "scenes" : [
        {
            "name" : "Scene",
            "nodes" : [
                0,
                1,
                2,
                3,
                4,
                5,
                6,
                7,
                8
            ]
        }
    ],
    "nodes" : [
        {
            "name" : "Lamp.006",
            "rotation" : [
                -0.37469542026519775,
                0.5571600198745728,
                -0.7310956120491028,
                0.12114165723323822
            ],
            "scale" : [
                0.290800005197525,
                0.2908000349998474,
                0.290800005197525
            ],
            "translation" : [
                1.3023455142974854,
                0.6247351169586182,
                0.23526614904403687
            ]
        },
        {
            "name" : "Lamp.005",
            "rotation" : [
                -0.37469542026519775,
                0.5571600198745728,
                -0.7310956120491028,
                0.12114165723323822
            ],
            "scale" : [
                0.290800005197525,
                0.2908000349998474,
                0.290800005197525
            ],
            "translation" : [
                -0.32759585976600647,
                0.5678675770759583,
                -1.2081961631774902
            ]
        },
        {
            "name" : "Lamp.004",
            "rotation" : [
                -0.21957065165042877,
                -0.3214375376701355,
                0.5365118980407715,
                0.7487467527389526
            ],
            "scale" : [
                0.290800005197525,
                0.2908000349998474,
                0.290800005197525
            ],
            "translation" : [
                -0.38348454236984253,
                0.5070921182632446,
                0.8078505396842957
            ]
        },
        {
            "name" : "Lamp.002",
            "rotation" : [
                -0.916404128074646,
                0.12775352597236633,
                -0.2495913952589035,
                0.28563392162323
            ],
            "scale" : [
                0.290800005197525,
                0.2908000349998474,
                0.290800005197525
            ],
            "translation" : [
                -0.38348454236984253,
                0.5070921182632446,
                0.8078505396842957
            ]
        },
        {
            "name" : "Lamp.001",
            "rotation" : [
                -0.37469542026519775,
                0.5571600198745728,
                -0.7310956120491028,
                0.12114165723323822
            ],
            "scale" : [
                0.290800005197525,
                0.2908000349998474,
                0.290800005197525
            ],
            "translation" : [
                -0.7992886304855347,
                0.4245501160621643,
                -0.44817879796028137
            ]
        },
        {
            "name" : "Lamp.000",
            "rotation" : [
                -0.5404919385910034,
                -0.41225576400756836,
                -0.20516321063041687,
                0.7041460871696472
            ],
            "scale" : [
                0.290800005197525,
                0.2908000349998474,
                0.290800005197525
            ],
            "translation" : [
                -0.38348454236984253,
                0.5070921182632446,
                0.8078505396842957
            ]
        },
        {
            "mesh" : 0,
            "name" : "Plane.003",
            "scale" : [
                0.92513507604599,
                0.9251351356506348,
                0.9251352548599243
            ]
        },
        {
            "name" : "Lamp.003",
            "rotation" : [
                0.5179749131202698,
                -0.47951701283454895,
                -0.03788258507847786,
                0.7073403000831604
            ],
            "scale" : [
                0.290800005197525,
                0.2908000349998474,
                0.290800005197525
            ],
            "translation" : [
                -0.38348454236984253,
                0.5070921182632446,
                0.8078505396842957
            ]
        },
        {
            "mesh" : 1,
            "name" : "Plane.018",
            "scale" : [
                0.92513507604599,
                0.9251351356506348,
                0.9251352548599243
            ]
        }
    ],
    "materials" : [
        {
            "doubleSided" : true,
            "name" : "zuk",
            "pbrMetallicRoughness" : {
                "baseColorFactor" : [
                    1,
                    1,
                    1,
                    1
                ],
                "metallicFactor" : 0,
                "roughnessFactor" : 0.5
            }
        }
    ],
    "meshes" : [
        {
            "name" : "Plane.003",
            "primitives" : [
                {
                    "attributes" : {
                        "POSITION" : 0,
                        "NORMAL" : 1,
                        "TEXCOORD_0" : 2
                    },
                    "indices" : 3,
                    "material" : 0
                }
            ]
        },
        {
            "name" : "Plane.009",
            "primitives" : [
                {
                    "attributes" : {
                        "POSITION" : 4,
                        "NORMAL" : 5,
                        "TEXCOORD_0" : 6
                    },
                    "indices" : 7,
                    "material" : 0
                }
            ]
        }
    ],
    "accessors" : [
        {
            "bufferView" : 0,
            "componentType" : 5126,
            "count" : 8,
            "max" : [
                0.25904279947280884,
                0.3398573398590088,
                0.5403657555580139
            ],
            "min" : [
                0.24760890007019043,
                0.3117664158344269,
                0.5303536653518677
            ],
            "type" : "VEC3"
        },
        {
            "bufferView" : 1,
            "componentType" : 5126,
            "count" : 8,
            "type" : "VEC3"
        },
        {
            "bufferView" : 2,
            "componentType" : 5126,
            "count" : 8,
            "type" : "VEC2"
        },
        {
            "bufferView" : 3,
            "componentType" : 5123,
            "count" : 30,
            "type" : "SCALAR"
        },
        {
            "bufferView" : 4,
            "componentType" : 5126,
            "count" : 7290,
            "max" : [
                0.34260085225105286,
                0.5297763347625732,
                0.784220278263092
            ],
            "min" : [
                -0.34260085225105286,
                -0.16268610954284668,
                -0.6732220649719238
            ],
            "type" : "VEC3"
        },
        {
            "bufferView" : 5,
            "componentType" : 5126,
            "count" : 7290,
            "type" : "VEC3"
        },
        {
            "bufferView" : 6,
            "componentType" : 5126,
            "count" : 7290,
            "type" : "VEC2"
        },
        {
            "bufferView" : 7,
            "componentType" : 5123,
            "count" : 35283,
            "type" : "SCALAR"
        }
    ],
    "bufferViews" : [
        {
            "buffer" : 0,
            "byteLength" : 96,
            "byteOffset" : 0
        },
        {
            "buffer" : 0,
            "byteLength" : 96,
            "byteOffset" : 96
        },
        {
            "buffer" : 0,
            "byteLength" : 64,
            "byteOffset" : 192
        },
        {
            "buffer" : 0,
            "byteLength" : 60,
            "byteOffset" : 256
        },
        {
            "buffer" : 0,
            "byteLength" : 87480,
            "byteOffset" : 316
        },
        {
            "buffer" : 0,
            "byteLength" : 87480,
            "byteOffset" : 87796
        },
        {
            "buffer" : 0,
            "byteLength" : 58320,
            "byteOffset" : 175276
        },
        {
            "buffer" : 0,
            "byteLength" : 70566,
            "byteOffset" : 233596
        }
    ],
    "buffers" : [
        {
            "byteLength" : 304164,
            "uri" : "ad1be740d7ec4761ab57ea20315fc887.bin"
        }
    ]
}
